{
	"asset":{
		"generator":"Khronos glTF Blender I/O v3.6.27",
		"version":"2.0"
	},
	"scene":0,
	"scenes":[
		{
			"name":"Scene",
			"nodes":[
				0,
				1,
				2,
				3
			]
		}
	],
	"nodes":[
		{
			"mesh":0,
			"name":"pink.ear",
			"rotation":[
				0.43376100063323975,
				0.013177859596908092,
				-0.012683793902397156,
				0.9008423089981079
			],
			"scale":[
				14.238347053527832,
				14.238347053527832,
				14.238347053527832
			],
			"translation":[
				1.133865475654602,
				1.222458004951477,
				-0.7260207533836365
			]
		},
		{
			"mesh":1,
			"name":"centre",
			"rotation":[
				0.43376100063323975,
				0.013177859596908092,
				-0.012683793902397156,
				0.9008423089981079
			],
			"scale":[
				14.238347053527832,
				14.238347053527832,
				14.238347053527832
			],
			"translation":[
				-0.15804752707481384,
				0.4227908253669739,
				-0.031175613403320312
			]
		},
		{
			"mesh":2,
			"name":"blue.ear",
			"rotation":[
				0.43376100063323975,
				0.013177859596908092,
				-0.012683793902397156,
				0.9008423089981079
			],
			"scale":[
				14.238347053527832,
				14.238347053527832,
				14.238347053527832
			],
			"translation":[
				-1.1399712562561035,
				1.0012438297271729,
				-0.449693500995636
			]
		},
		{
			"mesh":3,
			"name":"base",
			"rotation":[
				0.43376100063323975,
				0.013177859596908092,
				-0.012683793902397156,
				0.9008423089981079
			],
			"scale":[
				14.238347053527832,
				14.238347053527832,
				14.238347053527832
			],
			"translation":[
				-0.2477898895740509,
				-0.06174170970916748,
				0.35942667722702026
			]
		}
	],
	"materials":[
		{
			"doubleSided":true,
			"name":"SVGMat.004",
			"pbrMetallicRoughness":{
				"baseColorFactor":[
					0.9473065137863159,
					0.10461648553609848,
					0.3324515223503113,
					1
				],
				"metallicFactor":0,
				"roughnessFactor":0.4000000059604645
			}
		},
		{
			"doubleSided":true,
			"name":"SVGMat.002",
			"pbrMetallicRoughness":{
				"baseColorFactor":[
					0.6795424818992615,
					0.004024717025458813,
					0.15592646598815918,
					1
				],
				"metallicFactor":0,
				"roughnessFactor":0.4000000059604645
			}
		},
		{
			"doubleSided":true,
			"name":"SVGMat.003",
			"pbrMetallicRoughness":{
				"baseColorFactor":[
					0.25015828013420105,
					0.30054378509521484,
					0.9911020994186401,
					1
				],
				"metallicFactor":0,
				"roughnessFactor":0.4000000059604645
			}
		},
		{
			"doubleSided":true,
			"name":"SVGMat.005",
			"pbrMetallicRoughness":{
				"baseColorFactor":[
					0.6795424818992615,
					0.004024717025458813,
					0.15592646598815918,
					1
				],
				"metallicFactor":0,
				"roughnessFactor":0.4000000059604645
			}
		}
	],
	"meshes":[
		{
			"name":"Curve.003",
			"primitives":[
				{
					"attributes":{
						"POSITION":0,
						"NORMAL":1,
						"TEXCOORD_0":2
					},
					"indices":3,
					"material":0
				}
			]
		},
		{
			"name":"Curve.001",
			"primitives":[
				{
					"attributes":{
						"POSITION":4,
						"NORMAL":5,
						"TEXCOORD_0":6
					},
					"indices":7,
					"material":1
				}
			]
		},
		{
			"name":"Curve.002",
			"primitives":[
				{
					"attributes":{
						"POSITION":8,
						"NORMAL":9,
						"TEXCOORD_0":10
					},
					"indices":11,
					"material":2
				}
			]
		},
		{
			"name":"Curve.004",
			"primitives":[
				{
					"attributes":{
						"POSITION":12,
						"NORMAL":13,
						"TEXCOORD_0":14
					},
					"indices":15,
					"material":3
				}
			]
		}
	],
	"accessors":[
		{
			"bufferView":0,
			"componentType":5126,
			"count":942,
			"max":[
				0.06818562000989914,
				0,
				0.09300756454467773
			],
			"min":[
				-0.07767681777477264,
				-0.019999999552965164,
				-0.05059162899851799
			],
			"type":"VEC3"
		},
		{
			"bufferView":1,
			"componentType":5126,
			"count":942,
			"type":"VEC3"
		},
		{
			"bufferView":2,
			"componentType":5126,
			"count":942,
			"type":"VEC2"
		},
		{
			"bufferView":3,
			"componentType":5123,
			"count":1860,
			"type":"SCALAR"
		},
		{
			"bufferView":4,
			"componentType":5126,
			"count":1081,
			"max":[
				0.09473906457424164,
				0,
				0.08298808336257935
			],
			"min":[
				-0.0733109638094902,
				-0.019999999552965164,
				-0.08396472036838531
			],
			"type":"VEC3"
		},
		{
			"bufferView":5,
			"componentType":5126,
			"count":1081,
			"type":"VEC3"
		},
		{
			"bufferView":6,
			"componentType":5126,
			"count":1081,
			"type":"VEC2"
		},
		{
			"bufferView":7,
			"componentType":5123,
			"count":2580,
			"type":"SCALAR"
		},
		{
			"bufferView":8,
			"componentType":5126,
			"count":1194,
			"max":[
				0.07392802089452744,
				0.019999997690320015,
				0.07473793625831604
			],
			"min":[
				-0.07134934514760971,
				-0.019999999552965164,
				-0.07202601432800293
			],
			"type":"VEC3"
		},
		{
			"bufferView":9,
			"componentType":5126,
			"count":1194,
			"type":"VEC3"
		},
		{
			"bufferView":10,
			"componentType":5126,
			"count":1194,
			"type":"VEC2"
		},
		{
			"bufferView":11,
			"componentType":5123,
			"count":2436,
			"type":"SCALAR"
		},
		{
			"bufferView":12,
			"componentType":5126,
			"count":518,
			"max":[
				0.12879392504692078,
				0,
				0.0924854651093483
			],
			"min":[
				-0.09276477992534637,
				-0.019999999552965164,
				-0.04201487451791763
			],
			"type":"VEC3"
		},
		{
			"bufferView":13,
			"componentType":5126,
			"count":518,
			"type":"VEC3"
		},
		{
			"bufferView":14,
			"componentType":5126,
			"count":518,
			"type":"VEC2"
		},
		{
			"bufferView":15,
			"componentType":5123,
			"count":1284,
			"type":"SCALAR"
		}
	],
	"bufferViews":[
		{
			"buffer":0,
			"byteLength":11304,
			"byteOffset":0,
			"target":34962
		},
		{
			"buffer":0,
			"byteLength":11304,
			"byteOffset":11304,
			"target":34962
		},
		{
			"buffer":0,
			"byteLength":7536,
			"byteOffset":22608,
			"target":34962
		},
		{
			"buffer":0,
			"byteLength":3720,
			"byteOffset":30144,
			"target":34963
		},
		{
			"buffer":0,
			"byteLength":12972,
			"byteOffset":33864,
			"target":34962
		},
		{
			"buffer":0,
			"byteLength":12972,
			"byteOffset":46836,
			"target":34962
		},
		{
			"buffer":0,
			"byteLength":8648,
			"byteOffset":59808,
			"target":34962
		},
		{
			"buffer":0,
			"byteLength":5160,
			"byteOffset":68456,
			"target":34963
		},
		{
			"buffer":0,
			"byteLength":14328,
			"byteOffset":73616,
			"target":34962
		},
		{
			"buffer":0,
			"byteLength":14328,
			"byteOffset":87944,
			"target":34962
		},
		{
			"buffer":0,
			"byteLength":9552,
			"byteOffset":102272,
			"target":34962
		},
		{
			"buffer":0,
			"byteLength":4872,
			"byteOffset":111824,
			"target":34963
		},
		{
			"buffer":0,
			"byteLength":6216,
			"byteOffset":116696,
			"target":34962
		},
		{
			"buffer":0,
			"byteLength":6216,
			"byteOffset":122912,
			"target":34962
		},
		{
			"buffer":0,
			"byteLength":4144,
			"byteOffset":129128,
			"target":34962
		},
		{
			"buffer":0,
			"byteLength":2568,
			"byteOffset":133272,
			"target":34963
		}
	],
	"buffers":[
		{
			"byteLength":135840,
			"uri":"data:application/octet-stream;base64,"
		}
	]
}
