<svg version="1.1" id="Layer_1" xmlns="http://www.w3.org/2000/svg" xmlns:xlink="http://www.w3.org/1999/xlink" x="0px" y="0px"
	 width="100%" viewBox="0 0 1088 943" enable-background="new 0 0 1088 943" xml:space="preserve">
<path fill="#FFFFFF" opacity="1.000000" stroke="none" 
	d="
M1.000000,354.000000 
	C1.000000,236.014450 1.000000,118.528900 1.000000,1.021672 
	C363.607635,1.021672 726.215271,1.021672 1088.911377,1.021672 
	C1088.911377,315.235626 1088.911377,629.471252 1088.911377,943.853455 
	C726.333374,943.853455 363.666687,943.853455 1.000000,943.853455 
	C1.000000,747.451294 1.000000,550.975647 1.000000,354.000000 
M299.499359,502.999817 
	C301.651917,505.093872 303.768921,507.225983 305.962341,509.276337 
	C335.357086,536.752808 364.786163,564.192627 394.156311,591.695374 
	C411.625732,608.054077 429.006622,624.507324 446.247284,640.748474 
	C514.273865,570.478394 582.190918,500.321503 650.280762,429.986084 
	C655.951477,435.997314 660.713135,441.044861 665.713806,446.345795 
	C597.502502,516.296326 528.863342,586.685608 460.141205,657.160034 
	C490.166443,686.467773 519.869080,715.460571 549.763672,744.640808 
	C647.992004,643.885742 745.716492,543.647461 843.639648,443.205505 
	C778.785339,380.113892 714.412170,317.490326 649.906067,254.737396 
	C648.707642,255.879623 647.740173,256.763916 646.814331,257.689728 
	C596.852600,307.647736 546.806030,357.521301 496.983551,407.617706 
	C479.384369,425.313690 462.290039,443.513550 445.078918,461.591583 
	C442.543488,464.254730 440.648407,464.587494 438.216248,461.724518 
	C434.825714,457.733459 431.306946,453.851349 427.906891,449.994934 
	C495.462189,380.718506 563.749023,310.691864 632.287903,240.406815 
	C602.309998,211.164230 572.508301,182.093567 542.645142,152.962891 
	C444.478149,253.650589 346.487823,354.157166 248.198959,454.969910 
	C265.500214,471.157227 282.249542,486.828125 299.499359,502.999817 
M12.998230,292.499573 
	C12.474786,313.333099 15.298432,333.812622 20.045788,354.013855 
	C31.612820,403.234589 54.856846,446.229645 90.120026,482.479156 
	C106.144333,498.951721 122.933891,514.680176 139.398270,530.723633 
	C140.770630,532.060852 142.311020,533.225708 144.143127,534.785461 
	C154.315063,524.164856 164.064178,513.926819 173.878235,503.751465 
	C193.302979,483.611542 212.766418,463.508972 232.208710,443.385986 
	C260.561157,414.040985 288.904694,384.687317 317.260498,355.345551 
	C336.588745,335.345245 355.934357,315.361755 375.266968,295.365662 
	C404.439911,265.191528 433.582458,234.987915 462.788696,204.846008 
	C479.133759,187.977295 495.612366,171.238052 511.964508,154.376175 
	C517.289062,148.885651 522.403870,143.191635 527.686401,137.513519 
	C513.577026,123.959908 499.761292,110.230392 485.427551,97.064926 
	C474.070770,86.633812 462.651123,76.117790 450.265137,66.988373 
	C407.267548,35.295837 358.562531,18.589836 305.478577,15.191953 
	C278.936188,13.492981 252.503693,15.734037 226.448334,21.914227 
	C161.949265,37.213047 109.412857,71.216415 69.261513,123.649300 
	C31.478500,172.989426 12.734295,229.175034 12.998230,292.499573 
M729.105957,20.566738 
	C722.003845,22.735483 714.820007,24.669973 707.813477,27.112841 
	C674.386719,38.767265 643.960205,55.977768 618.002258,79.939087 
	C597.229431,99.114090 578.135803,120.108345 558.316956,140.314835 
	C558.015259,140.622421 557.971313,141.182800 557.744629,141.793396 
	C689.733398,268.721130 821.708191,395.635376 951.884399,520.820007 
	C962.380188,511.302185 972.529602,502.854309 981.778503,493.514648 
	C992.653320,482.533081 1003.265869,471.205200 1013.086365,459.281403 
	C1049.666870,414.866364 1069.438599,363.437134 1073.750366,306.348938 
	C1075.788086,279.369629 1074.122314,252.287125 1067.807373,225.737991 
	C1052.036743,159.437180 1017.092163,105.537247 962.323120,65.011482 
	C917.077209,31.532242 866.091614,13.488562 809.624695,12.062876 
	C795.858704,11.715309 781.978577,11.864202 768.299866,13.252596 
	C755.381592,14.563804 742.659302,17.806046 729.105957,20.566738 
M258.999054,487.500916 
	C250.861603,479.677948 242.724167,471.854950 234.370605,463.824188 
	C207.811966,491.025391 181.354507,518.122986 154.951584,545.164673 
	C287.818054,674.686279 420.183929,803.719849 552.710266,932.909912 
	C681.984314,800.317749 810.998108,667.992615 939.986023,535.693909 
	C912.602173,509.012970 885.542480,482.647797 858.442017,456.242950 
	C755.850342,561.479980 653.263977,666.711548 550.806335,771.811035 
	C514.404907,736.578857 478.104492,701.573853 441.954865,666.413818 
	C414.634918,639.841614 387.535675,613.042664 360.287476,586.396545 
	C326.718903,553.569824 293.097748,520.796875 258.999054,487.500916 
z"/>
<path fill="#D70D6E" opacity="1.000000" stroke="none" 
	d="
M299.249115,502.749451 
	C282.249542,486.828125 265.500214,471.157227 248.198959,454.969910 
	C346.487823,354.157166 444.478149,253.650589 542.645142,152.962891 
	C572.508301,182.093567 602.309998,211.164230 632.287903,240.406815 
	C563.749023,310.691864 495.462189,380.718506 427.906891,449.994934 
	C431.306946,453.851349 434.825714,457.733459 438.216248,461.724518 
	C440.648407,464.587494 442.543488,464.254730 445.078918,461.591583 
	C462.290039,443.513550 479.384369,425.313690 496.983551,407.617706 
	C546.806030,357.521301 596.852600,307.647736 646.814331,257.689728 
	C647.740173,256.763916 648.707642,255.879623 649.906067,254.737396 
	C714.412170,317.490326 778.785339,380.113892 843.639648,443.205505 
	C745.716492,543.647461 647.992004,643.885742 549.763672,744.640808 
	C519.869080,715.460571 490.166443,686.467773 460.141205,657.160034 
	C528.863342,586.685608 597.502502,516.296326 665.713806,446.345795 
	C660.713135,441.044861 655.951477,435.997314 650.280762,429.986084 
	C582.190918,500.321503 514.273865,570.478394 446.247284,640.748474 
	C429.006622,624.507324 411.625732,608.054077 394.156311,591.695374 
	C364.786163,564.192627 335.357086,536.752808 305.962341,509.276337 
	C303.768921,507.225983 301.651917,505.093872 299.249115,502.749451 
z"/>
<path fill="#8995FE" opacity="1.000000" stroke="none" 
	d="
M12.996038,291.999725 
	C12.734295,229.175034 31.478500,172.989426 69.261513,123.649300 
	C109.412857,71.216415 161.949265,37.213047 226.448334,21.914227 
	C252.503693,15.734037 278.936188,13.492981 305.478577,15.191953 
	C358.562531,18.589836 407.267548,35.295837 450.265137,66.988373 
	C462.651123,76.117790 474.070770,86.633812 485.427551,97.064926 
	C499.761292,110.230392 513.577026,123.959908 527.686401,137.513519 
	C522.403870,143.191635 517.289062,148.885651 511.964508,154.376175 
	C495.612366,171.238052 479.133759,187.977295 462.788696,204.846008 
	C433.582458,234.987915 404.439911,265.191528 375.266968,295.365662 
	C355.934357,315.361755 336.588745,335.345245 317.260498,355.345551 
	C288.904694,384.687317 260.561157,414.040985 232.208710,443.385986 
	C212.766418,463.508972 193.302979,483.611542 173.878235,503.751465 
	C164.064178,513.926819 154.315063,524.164856 144.143127,534.785461 
	C142.311020,533.225708 140.770630,532.060852 139.398270,530.723633 
	C122.933891,514.680176 106.144333,498.951721 90.120026,482.479156 
	C54.856846,446.229645 31.612820,403.234589 20.045788,354.013855 
	C15.298432,333.812622 12.474786,313.333099 12.996038,291.999725 
z"/>
<path fill="#F95B9C" opacity="1.000000" stroke="none" 
	d="
M729.478394,20.382816 
	C742.659302,17.806046 755.381592,14.563804 768.299866,13.252596 
	C781.978577,11.864202 795.858704,11.715309 809.624695,12.062876 
	C866.091614,13.488562 917.077209,31.532242 962.323120,65.011482 
	C1017.092163,105.537247 1052.036743,159.437180 1067.807373,225.737991 
	C1074.122314,252.287125 1075.788086,279.369629 1073.750366,306.348938 
	C1069.438599,363.437134 1049.666870,414.866364 1013.086365,459.281403 
	C1003.265869,471.205200 992.653320,482.533081 981.778503,493.514648 
	C972.529602,502.854309 962.380188,511.302185 951.884399,520.820007 
	C821.708191,395.635376 689.733398,268.721130 557.744629,141.793396 
	C557.971313,141.182800 558.015259,140.622421 558.316956,140.314835 
	C578.135803,120.108345 597.229431,99.114090 618.002258,79.939087 
	C643.960205,55.977768 674.386719,38.767265 707.813477,27.112841 
	C714.820007,24.669973 722.003845,22.735483 729.478394,20.382816 
z"/>
<path fill="#D70D6E" opacity="1.000000" stroke="none" 
	d="
M259.249176,487.750793 
	C293.097748,520.796875 326.718903,553.569824 360.287476,586.396545 
	C387.535675,613.042664 414.634918,639.841614 441.954865,666.413818 
	C478.104492,701.573853 514.404907,736.578857 550.806335,771.811035 
	C653.263977,666.711548 755.850342,561.479980 858.442017,456.242950 
	C885.542480,482.647797 912.602173,509.012970 939.986023,535.693909 
	C810.998108,667.992615 681.984314,800.317749 552.710266,932.909912 
	C420.183929,803.719849 287.818054,674.686279 154.951584,545.164673 
	C181.354507,518.122986 207.811966,491.025391 234.370605,463.824188 
	C242.724167,471.854950 250.861603,479.677948 259.249176,487.750793 
z"/>
</svg>